<svg xmlns="http://www.w3.org/2000/svg" viewBox="0 0 367.52 367.52"><defs><style>.cls-1{fill:#010101;}.cls-2,.cls-4,.cls-5,.cls-7,.cls-8{fill:none;}.cls-3,.cls-4{fill-rule:evenodd;}.cls-5,.cls-7,.cls-8{stroke:#231f20;stroke-miterlimit:10;}.cls-6{fill:#231f20;}.cls-7{stroke-width:2px;}.cls-8{stroke-width:6px;}</style></defs><title>HelloBordeauxLogo2</title><g id="Glass2"><path class="cls-1" d="M173.84,87.94s-1.31,10.87-1.31,19.13c0,7.33,4.12,12.44,11.22,12.44,6.92,0,11.22-5.11,11.22-12.44,0-8.26-1.31-19.13-1.31-19.13Zm.56.53h18.71s1.23,11.41,1.23,18.48c0,6.27-4.74,9.4-10.59,9.4s-10.59-3.12-10.59-9.4c0-7.07,1.23-18.48,1.23-18.48Zm6.9,31.38a5.2,5.2,0,0,1,1,1.33l0,0a4.62,4.62,0,0,1,.32,1.24v27.87a5.82,5.82,0,0,1-3.08,2.08c-2.27.48-5.15.22-6.75.37h0l-.05.47H194.7l-.05-.47h0c-1.6-.15-4.48.11-6.75-.37a5.82,5.82,0,0,1-3.08-2.08V122.47a4.62,4.62,0,0,1,.32-1.24l0,0a5.2,5.2,0,0,1,1-1.33,22.3,22.3,0,0,1-2.44.19h0a22.3,22.3,0,0,1-2.44-.19Z"/></g><g id="Monument"><g id="GZrvwo.tif"><path class="cls-2" d="M89.44,199.08V156.71h47.14v46.61H89.44v-1.06c.53,0,1.05.11,1.58.11q21.27,0,42.53,0a14.3,14.3,0,0,0,1.73-.2v-3.08Zm1.07-30.49H134.7v-2.77L112.58,157,90.51,165.8ZM133.39,195H91.57l.12,1.92h41.7Zm-25-2.54h8.36V172.06h-8.36Zm21.73.09V172.11H122V192.5Zm-26.9-20.43H94.93v20.39h8.29Z"/><path class="cls-3" d="M89.44,199.08h45.83v3.08a14.3,14.3,0,0,1-1.73.2q-21.27,0-42.53,0c-.53,0-1.05-.07-1.58-.11Z"/><path class="cls-3" d="M90.51,168.6v-2.8L112.58,157l22.12,8.79v2.77Zm2-2,.12.51h39.83l.1-.53-20-7.94Z"/><path class="cls-3" d="M133.39,195v1.92H91.69L91.57,195Z"/><path class="cls-3" d="M108.39,192.41V172.06h8.36v20.35Zm1.53-18.81v17.33h5.32V173.6Z"/><path class="cls-3" d="M130.12,192.5H122V172.11h8.17Zm-1.49-1.5V173.48h-5.26V191Z"/><path class="cls-3" d="M103.22,172.06v20.39H94.93V172.06Zm-6.82,1.4V191h5.35V173.47Z"/><path class="cls-4" d="M92.49,166.58l20.1-8,20,7.94-.1.53H92.61Z"/><path class="cls-4" d="M109.91,173.6h5.32v17.33h-5.32Z"/><path class="cls-4" d="M128.63,191h-5.26V173.48h5.26Z"/><path class="cls-4" d="M96.4,173.47h5.35V191H96.4Z"/></g></g><g id="Cannelé"><line class="cls-5" x1="103.26" y1="103.26" x2="264.26" y2="264.26"/><line class="cls-5" x1="103.26" y1="264.26" x2="264.26" y2="103.26"/><path class="cls-2" d="M149.58,356.27V19.94H363.12V356.27ZM253.12,200.44c2.25,2,2.9,2.06,5.33.51a1.41,1.41,0,0,1,1.26,0c2,1.37,2,1.36,3.92-.27a1.69,1.69,0,0,1,1.52-.27c1.83,1.19,3.33.82,4.74-.68a1.22,1.22,0,0,1,1.84-.3c2.13,1.37,4.26.28,4.5-2.26a11.71,11.71,0,0,0-.16-3.31q-2.22-11.15-4.55-22.27c-.53-2.54-1-5.1-1.8-7.58-.58-1.9-1.59-2.21-3.28-1.22-1,.56-1.4.39-2-.51-1.13-1.73-1.85-1.82-3.48-.57a1.43,1.43,0,0,1-2.18-.13c-1.49-1.43-2.28-1.49-3.91-.27-.85.64-1.43.9-2.41.1a2.32,2.32,0,0,0-3.62.59c-.63.91-1.06,1-2,.4-1.47-1-2.45-.67-3.2.95a19.26,19.26,0,0,0-1.2,3.61q-3.13,12.9-6.19,25.83a13.46,13.46,0,0,0-.44,3.6c.12,2.77,2.36,3.83,4.7,2.4a1.56,1.56,0,0,1,1.49.2c1.21,2.08,2.89,1.88,4.78,1.22a1.59,1.59,0,0,1,1.32.07C249.74,202,251.38,201.61,253.12,200.44Z"/><path class="cls-3" d="M253.12,200.44c-1.74,1.17-3.38,1.54-5-.12a1.59,1.59,0,0,0-1.32-.07c-1.88.66-3.56.86-4.78-1.22a1.56,1.56,0,0,0-1.49-.2c-2.34,1.42-4.58.36-4.7-2.4a13.46,13.46,0,0,1,.44-3.6q3-12.92,6.19-25.83a19.26,19.26,0,0,1,1.2-3.61c.75-1.61,1.74-1.9,3.2-.95.91.59,1.34.51,2-.4a2.32,2.32,0,0,1,3.62-.59c1,.8,1.57.54,2.41-.1,1.63-1.23,2.43-1.16,3.91.27a1.43,1.43,0,0,0,2.18.13c1.63-1.25,2.35-1.16,3.48.57.59.9,1,1.07,2,.51,1.69-1,2.7-.68,3.28,1.22.76,2.48,1.27,5,1.8,7.58q2.32,11.13,4.55,22.27a11.71,11.71,0,0,1,.16,3.31c-.23,2.54-2.37,3.63-4.5,2.26a1.22,1.22,0,0,0-1.84.3c-1.4,1.5-2.91,1.87-4.74.68a1.69,1.69,0,0,0-1.52.27c-1.94,1.63-1.9,1.64-3.92.27a1.41,1.41,0,0,0-1.26,0C256,202.5,255.37,202.47,253.12,200.44Zm12.41-31.94-.52.24a18.67,18.67,0,0,0,0,2.57c.6,4.27,1.25,8.53,1.89,12.79.44,3,.85,5.91,1.37,8.84.08.46.7.82,1.07,1.22a14.67,14.67,0,0,0,.66-1.4c.06-.18-.09-.43-.12-.64q-1.07-7-2.13-13.93c-.42-2.73-.8-5.46-1.3-8.18C266.37,169.48,265.85,169,265.53,168.5Zm-16.9,1.23-.55-1.39c-.36.46-.73.92-1.07,1.4a1.27,1.27,0,0,0-.1.48c-1.29,7.27-2.61,14.55-3.84,21.83-.09.55.35,1.2.55,1.8.38-.47,1-.9,1.11-1.43.4-1.66.63-3.36.91-5Zm11.52-.73h-.79a9.7,9.7,0,0,0-.43,2.16c.2,6.88.44,13.75.69,20.63a4,4,0,0,0,.28,1.46,6.11,6.11,0,0,0,.89,1.16c.23-.45.66-.9.66-1.35,0-1.55-.24-3.1-.28-4.65-.16-5.33-.25-10.66-.43-16A25.43,25.43,0,0,0,260.15,169Zm-5.53,3.53h-.14a15.78,15.78,0,0,0,0-2.16,5.14,5.14,0,0,0-.58-1.31,3.68,3.68,0,0,0-.65,1.14c-.27,1.86-.48,3.73-.66,5.6-.53,5.5-1.06,11-1.5,16.51,0,.61.49,1.27.76,1.91.33-.56.87-1.1.94-1.69.25-2,.3-4,.49-6C253.69,181.88,254.16,177.2,254.62,172.52Z"/><path class="cls-4" d="M265.53,168.5c.32.5.84,1,.94,1.52.49,2.71.88,5.45,1.3,8.18q1.07,7,2.13,13.93c0,.22.18.47.12.64a14.67,14.67,0,0,1-.66,1.4c-.37-.41-1-.77-1.07-1.22-.52-2.94-.93-5.89-1.37-8.84-.64-4.26-1.29-8.52-1.89-12.79a18.67,18.67,0,0,1,0-2.57Z"/><path class="cls-4" d="M248.63,169.73l-3,17.64c-.29,1.68-.51,3.38-.91,5-.13.53-.73,1-1.11,1.43-.2-.6-.64-1.25-.55-1.8,1.24-7.28,2.55-14.56,3.84-21.83a1.27,1.27,0,0,1,.1-.48c.34-.48.71-.93,1.07-1.4Z"/><path class="cls-4" d="M260.15,169a25.43,25.43,0,0,1,.58,3.42c.19,5.33.28,10.66.43,16,0,1.55.27,3.1.28,4.65,0,.45-.43.9-.66,1.35a6.11,6.11,0,0,1-.89-1.16,4,4,0,0,1-.28-1.46c-.25-6.87-.49-13.75-.69-20.63a9.7,9.7,0,0,1,.43-2.16Z"/><path class="cls-4" d="M254.62,172.52c-.46,4.68-.93,9.35-1.37,14-.19,2-.24,4-.49,6-.08.59-.62,1.13-.94,1.69-.27-.64-.8-1.3-.76-1.91.44-5.51,1-11,1.5-16.51.18-1.87.39-3.74.66-5.6a3.68,3.68,0,0,1,.65-1.14,5.14,5.14,0,0,1,.58,1.31,15.78,15.78,0,0,1,0,2.16Z"/></g><g id="Pinpoint"><g id="wF7WTG.tif"><path class="cls-2" d="M152.86,281.48V188.17h58.08v93.32Zm31-11.7c3.89-7.77,7.88-15.4,9.85-23.84.78-3.36-1.26-7.48-4.45-9.52a9.81,9.81,0,0,0-11.13.2,9.58,9.58,0,0,0-4,9.68C176.07,254.59,180,262.09,183.83,269.79Z"/><path class="cls-3" d="M183.83,269.79c-3.84-7.7-7.77-15.19-9.76-23.48a9.58,9.58,0,0,1,4-9.68,9.81,9.81,0,0,1,11.13-.2c3.19,2,5.23,6.16,4.45,9.52C191.72,254.38,187.73,262,183.83,269.79Zm-4.6-25a4.61,4.61,0,0,0,9.22.19,4.61,4.61,0,1,0-9.22-.19Z"/><path class="cls-4" d="M179.23,244.74a4.61,4.61,0,1,1,9.22.19,4.61,4.61,0,0,1-9.22-.19Z"/></g></g><g id="Hello"><path class="cls-6" d="M158.79,38.15l-13.58,3,3,13.81-3.35.74-5.84-26.5,3.35-.74,2.08,9.45,13.58-3L156,25.46l3.35-.74,5.85,26.5-3.35.74Z"/><path class="cls-6" d="M185.08,42.2l-13.44.66v.08c.52,2.87,2.8,4.94,5.31,4.85a6.6,6.6,0,0,0,4.18-2l2.82,1.5a10.35,10.35,0,0,1-2.23,2.06,10,10,0,0,1-4.54,1.52,7.81,7.81,0,0,1-6-2.38,9,9,0,0,1-2.63-5.37,5.64,5.64,0,0,1-.08-.8,9.46,9.46,0,0,1,.13-2.07,9.18,9.18,0,0,1,2-4.33,8,8,0,0,1,11.84-.58,8.83,8.83,0,0,1,2.37,4.12A10.51,10.51,0,0,1,185.08,42.2Zm-3.56-2.57,0-.07a5.28,5.28,0,0,0-5-3.53,5.36,5.36,0,0,0-4.65,4l0,.08Z"/><path class="cls-6" d="M189.76,50.48l1.61-27.92,3.27.19L193,50.67Z"/><path class="cls-6" d="M199.78,51.3l3.71-27.73,3.25.43L203,51.74Z"/><path class="cls-6" d="M227.53,48.19a9.17,9.17,0,0,1-11.11,6.62,9.13,9.13,0,1,1,4.47-17.69,9.11,9.11,0,0,1,6.64,11.07Zm-3.18-.8a5.87,5.87,0,1,0-7.13,4.25A5.84,5.84,0,0,0,224.35,47.39Z"/></g><g id="Bordeaux"><path class="cls-6" d="M103,283l8,5.57a6.51,6.51,0,0,1,1.62,9,6.22,6.22,0,0,1-3,2.35h-.05V300a8,8,0,0,1,1.26,3.2,8.62,8.62,0,0,1-1.41,6.58A8.92,8.92,0,0,1,97.17,312l-9.64-6.7ZM99.06,309.3a5.58,5.58,0,0,0,7.57-1.47,5.46,5.46,0,0,0-1.31-7.54l-6.86-4.76-6.26,9Zm6.53-12.87a3.12,3.12,0,0,0,4.27-.8,3.15,3.15,0,0,0-.72-4.31l-5.23-3.63-3.54,5.1Z"/><path class="cls-6" d="M134.19,321.38a9.18,9.18,0,0,1-12,4.78,9.13,9.13,0,1,1,7.23-16.77,9.11,9.11,0,0,1,4.79,12Zm-3-1.3a5.87,5.87,0,1,0-7.71,3.07A5.84,5.84,0,0,0,131.18,320.08Z"/><path class="cls-6" d="M147.95,318.09c1.38-.9,4.75-1,6.71-.5l-1.6,3a5.42,5.42,0,0,0-6.71,3.69l-2.34,9-3.17-.83,4.4-16.9,3.17.83Z"/><path class="cls-6" d="M176.25,310.29l3.26.33-2.78,27.84-3.26-.33.2-2a9.38,9.38,0,0,1-6.08,1.81,9.11,9.11,0,1,1,1.81-18.13,9.39,9.39,0,0,1,5.6,3Zm-1.91,19.16a5.87,5.87,0,1,0-6.43,5.3A5.91,5.91,0,0,0,174.34,329.44Z"/><path class="cls-6" d="M204.18,329.22l-13.41,1.12v.08c.62,2.85,3,4.84,5.48,4.67a6.6,6.6,0,0,0,4.1-2.18l2.87,1.4a10.31,10.31,0,0,1-2.15,2.13,10,10,0,0,1-4.49,1.68,7.81,7.81,0,0,1-6.11-2.17,9,9,0,0,1-2.81-5.27,5.63,5.63,0,0,1-.1-.79,9.44,9.44,0,0,1,.06-2.07,9.17,9.17,0,0,1,1.81-4.4,8,8,0,0,1,5.67-3.11,8.06,8.06,0,0,1,6.14,2.13,8.85,8.85,0,0,1,2.52,4A10.5,10.5,0,0,1,204.18,329.22Zm-3.65-2.45,0-.07a5.28,5.28,0,0,0-5.14-3.36,5.36,5.36,0,0,0-4.51,4.16l0,.08Z"/><path class="cls-6" d="M224.9,314.67l3.16-.86,4.56,16.85-3.16.86-.53-1.95a9.38,9.38,0,0,1-5,3.85,9.11,9.11,0,1,1-4.76-17.58,9.39,9.39,0,0,1,6.29.78Zm2.28,8.42a5.87,5.87,0,1,0-4.12,7.24A5.9,5.9,0,0,0,227.19,323.1Z"/><path class="cls-6" d="M241.34,319.33l-4.42-9,2.94-1.45,4.42,9a4.81,4.81,0,0,0,8.61-4.25l-4.42-9,2.94-1.45,4.42,9a7.79,7.79,0,0,1,.33,6.09,8.34,8.34,0,0,1-10.22,5A7.75,7.75,0,0,1,241.34,319.33Z"/><path class="cls-6" d="M272.08,299.08l11.72,2.77-3.42,2.55-8.51-2-.51,8.7-3.42,2.55.69-12-10.45-2.48,3.45-2.57,7.18,1.73.43-7.4,3.42-2.55Z"/><path class="cls-7" d="M88.46,291.75A144,144,0,0,1,129.85,50.18"/><path class="cls-7" d="M237.07,50A144,144,0,0,1,278.73,292"/></g><g id="Layer_9" data-name="Layer 9"><circle class="cls-8" cx="183.76" cy="183.76" r="180.76"/></g></svg>